# xmcd
#
# Track frame offsets:
#	182
#	20490
#	49772
#	82312
#	101590
#	127792
#
# Disc length: 2050 seconds
# Revision: 0
# Processed by: cddbd v1.5.2PL0 Copyright (c) Steve Scherf et al.
# Submitted via: dBpowerAMP V12.0
#
DISCID=46080006
DTITLE=Sofia Shinas - State Of Mind (You Make Me Feel Good)
DYEAR=1993
DGENRE=House
TTITLE0=State Of Mind (You Make Me Feel Good) [Album Edit]
TTITLE1=State Of Mind (You Make Me Feel Good) [State Of Club Mix]
TTITLE2=State Of Mind (You Make Me Feel Good) [12” Mix]
TTITLE3=State Of Mind (You Make Me Feel Good) [Radio Remix]
TTITLE4=State Of Mind (You Make Me Feel Good) [Sub Dub]
TTITLE5=State Of Mind (You Make Me Feel Good) [12” Dub]
EXTD=
EXTT0=
EXTT1=
EXTT2=
EXTT3=
EXTT4=
EXTT5=
PLAYORDER=
